<?xml version="1.0" encoding="UTF-8" standalone="no"?>
<!-- Created with Inkscape (http://www.inkscape.org/) -->

<svg
   xmlns:dc="http://purl.org/dc/elements/1.1/"
   xmlns:cc="http://creativecommons.org/ns#"
   xmlns:rdf="http://www.w3.org/1999/02/22-rdf-syntax-ns#"
   xmlns:svg="http://www.w3.org/2000/svg"
   xmlns="http://www.w3.org/2000/svg"
   xmlns:sodipodi="http://sodipodi.sourceforge.net/DTD/sodipodi-0.dtd"
   xmlns:inkscape="http://www.inkscape.org/namespaces/inkscape"
   version="1.1"
   id="svg885"
   width="120"
   height="120"
   viewBox="0 0 120 120"
   sodipodi:docname="icon.svg"
   inkscape:version="0.92.4 (5da689c313, 2019-01-14)">
  <metadata
     id="metadata891">
    <rdf:RDF>
      <cc:Work
         rdf:about="">
        <dc:format>image/svg+xml</dc:format>
        <dc:type
           rdf:resource="http://purl.org/dc/dcmitype/StillImage" />
        <dc:title></dc:title>
      </cc:Work>
    </rdf:RDF>
  </metadata>
  <defs
     id="defs889" />
  <sodipodi:namedview
     pagecolor="#ffffff"
     bordercolor="#666666"
     borderopacity="1"
     objecttolerance="10"
     gridtolerance="10"
     guidetolerance="10"
     inkscape:pageopacity="0"
     inkscape:pageshadow="2"
     inkscape:window-width="2560"
     inkscape:window-height="1346"
     id="namedview887"
     showgrid="false"
     units="px"
     inkscape:zoom="0.65046604"
     inkscape:cx="1244.1025"
     inkscape:cy="568.73997"
     inkscape:window-x="-11"
     inkscape:window-y="-11"
     inkscape:window-maximized="1"
     inkscape:current-layer="svg885"
     inkscape:snap-page="true"
     inkscape:snap-bbox="true"
     inkscape:bbox-paths="true"
     inkscape:snap-global="true"
     inkscape:snap-text-baseline="false"
     inkscape:pagecheckerboard="true"
     inkscape:snap-object-midpoints="true"
     inkscape:snap-grids="false" />
  <g
     id="Devil"
     inkscape:label="Devil"
     inkscape:export-xdpi="300"
     inkscape:export-ydpi="300"
     transform="matrix(0.07869055,0,0,0.07869055,20.18721,-4.9111278)"
     style="stroke-width:12.70800495">
    <circle
       inkscape:label="DevilBG"
       r="762.48035"
       cy="824.8916"
       cx="505.94116"
       id="DevilBG"
       style="display:inline;opacity:1;fill:#ffd777;fill-opacity:1;fill-rule:nonzero;stroke:none;stroke-width:360.22680664;stroke-linecap:square;stroke-linejoin:round;stroke-miterlimit:4;stroke-dasharray:none;stroke-opacity:1" />
    <path
       inkscape:label="DevilFace"
       id="DevilFace"
       d="m 41.734375,333.94727 c -3.545737,0.0353 -7.107906,0.52748 -8.798828,1.45507 -5.990685,3.28631 -23.637033,48.85717 -28.2714845,73.00977 -6.4321895,33.52156 -6.1894641,75.69353 0.5878906,101.85156 3.354993,12.949 13.9137229,34.73377 22.8593749,47.16602 8.962939,12.45627 36.042936,40.13507 49.84961,51.29101 A 480,480 0 0 0 25.941406,824.89258 480,480 0 0 0 502.66602,1304.7773 480,480 0 0 0 979.39062,824.89258 480,480 0 0 0 927.37109,608.7207 c 13.80668,-11.15594 40.88668,-38.83474 49.84961,-51.29101 8.94566,-12.43225 19.50436,-34.21702 22.8594,-47.16602 6.7773,-26.15803 7.0201,-68.33 0.5879,-101.85156 -4.63453,-24.1526 -22.28084,-69.72346 -28.27152,-73.00977 -1.69093,-0.92759 -5.25309,-1.41977 -8.79882,-1.45507 -3.54574,-0.0353 -7.07439,0.38475 -8.70508,1.27929 -1.32891,0.729 -5.00138,7.65068 -8.16211,15.38086 -8.84927,21.64262 -26.42466,56.44279 -36.48828,72.25196 -12.67238,19.90726 -32.22611,39.63786 -47.07617,47.50585 -9.38141,4.97056 -18.81832,8.27902 -29.3418,10.21094 A 480,480 0 0 0 502.66602,345.05664 480,480 0 0 0 171.50781,480.57617 c -10.52348,-1.93192 -19.96038,-5.24038 -29.34179,-10.21094 -14.85006,-7.86799 -34.4038,-27.59858 -47.076176,-47.50585 -10.063624,-15.80917 -27.639013,-50.60934 -36.488282,-72.25196 -3.160729,-7.73018 -6.833201,-14.65186 -8.162109,-15.38086 -1.63069,-0.89454 -5.15934,-1.31456 -8.705078,-1.27929 z M 285.92773,1048.4336 H 719.4043 c -16.36806,94.9582 -116.52695,147.4023 -216.73828,147.4023 -100.21134,0 -200.37023,-52.4441 -216.73829,-147.4023 z"
       style="display:inline;opacity:1;fill:#d83100;fill-opacity:1;fill-rule:nonzero;stroke:none;stroke-width:360.22686768;stroke-linecap:square;stroke-linejoin:round;stroke-miterlimit:4;stroke-dasharray:none;stroke-opacity:1"
       inkscape:connector-curvature="0" />
  </g>
</svg>
